<svg xmlns="http://www.w3.org/2000/svg" xmlns:xlink="http://www.w3.org/1999/xlink" width="300" height="300" viewBox="0 0 300 300"><defs><clipPath id="a"><circle cx="150" cy="150" r="150" transform="translate(779 359)" fill="#683131" stroke="#707070" stroke-width="1"/></clipPath></defs><g transform="translate(-779 -359)" clip-path="url(#a)"><path d="M536.715,149.638c0,32.305-6.544,51.917-28.462,51.917-12.3,0-24.993-9.225-24.993-24.993,0-19.237,13.068-40.386,13.068-64.236,0-15-5.381-30-17.306-43.068,0,33.468-18.468,45-36.149,45-21.918,0-46.536-18.468-46.536-59.23,0-15.393,3.469-34.237,11.925-56.53-37.686,21.918-46.93,51.543-46.93,79.236s9.619,53.455,9.619,67.686c0,15.768-12.693,24.993-24.993,24.993-18.468,0-26.924-12.3-26.924-47.305-12.3,17.7-20.006,40.761-20.006,69.223,0,42.419,22.947,84.823,82.742,101.68a134.157,134.157,0,0,0,35.8,4.97c6.006.027,12.369-.125,19.157-.49,59.23,0,112.31-40.761,112.31-96.916C549.033,182.712,543.258,160.794,536.715,149.638Z" transform="translate(505.212 360.502)" fill="#683131"/></g></svg>